<svg xmlns="http://www.w3.org/2000/svg" width="1024" height="1024"
     viewBox="0 0 1024 1024" role="img" aria-label="BAR Antwerp 2026" xmlns:c2pa="http://c2pa.org/manifest"><metadata><c2pa:manifest>AAAWgmp1bWIAAAAeanVtZGMycGEAEQAQgAAAqgA4m3EDYzJwYQAAABZcanVtYgAAAEdqdW1kYzJtYQARABCAAACqADibcQN1cm46YzJwYTplMWNlZDM5NC0wMTAzLTQwZTMtODFiNi02MWIxY2E3OTM3NjEAAAADl2p1bWIAAAApanVtZGMyYXMAEQAQgAAAqgA4m3EDYzJwYS5hc3NlcnRpb25zAAAAALxqdW1iAAAARGp1bWRjYm9yABEAEIAAAKoAOJtxE2MycGEuaW5ncmVkaWVudC52MwAAAAAYYzJzaERmgp0MMMbAWyA0SFDFufsAAABwY2JvcqNpZGM6Zm9ybWF0bWltYWdlL3N2Zyt4bWxqaW5zdGFuY2VJRHgseG1wOmlpZDo1YWY4MWJmNy1mNWRjLTQxYzAtYTBlMi01NDA3MWNiM2I4ZjVscmVsYXRpb25zaGlwaHBhcmVudE9mAAAB4mp1bWIAAABBanVtZGNib3IAEQAQgAAAqgA4m3ETYzJwYS5hY3Rpb25zLnYyAAAAABhjMnNoS9OBNOnwA1tvrZb8qqh3ZgAAAZljYm9yomdhY3Rpb25zgqJmYWN0aW9ua2MycGEub3BlbmVkanBhcmFtZXRlcnOha2luZ3JlZGllbnRzgaJjdXJseC1zZWxmI2p1bWJmPWMycGEuYXNzZXJ0aW9ucy9jMnBhLmluZ3JlZGllbnQudjNkaGFzaFggqlY2TL5iXkJ22JjqN+f5tS3K49Vt5UPzS2LbsAZmcrqkZmFjdGlvbngdY29tLmFudGhyb3BpYy5jbGF1ZGUucHJvdmlkZWRqcGFyYW1ldGVyc6F4H2NvbS5hbnRocm9waWMub3JpZ2luLWNvbmZpZGVuY2VndW5rbm93bmtkZXNjcmlwdGlvbnhmQ2xhdWRlIHByb3ZpZGVkIHRoaXMgZmlsZSBhdCB0aGUgcmVxdWVzdCBvZiBhIHVzZXIgYW5kIG1heSBoYXZlIGNyZWF0ZWQgb3IgbW9kaWZpZWQgdGhlIGZpbGUgY29udGVudHMubXNvZnR3YXJlQWdlbnShZG5hbWVmQ2xhdWRlcmFsbEFjdGlvbnNJbmNsdWRlZPUAAADIanVtYgAAAEBqdW1kY2JvcgARABCAAACqADibcRNjMnBhLmhhc2guZGF0YQAAAAAYYzJzaHh9SCLeSdpFFw7Viwn75mUAAACAY2JvcqVjYWxnZnNoYTI1NmNwYWRNAAAAAAAAAAAAAAAAAGRoYXNoWCDg0XzJc9V8hRNbnTcoMQ/PO/khrHBaZKe47nGqMKZqwWRuYW1lbmp1bWJmIG1hbmlmZXN0amV4Y2x1c2lvbnOBomVzdGFydBjIZmxlbmd0aBkeBAAAAj5qdW1iAAAAJ2p1bWRjMmNsABEAEIAAAKoAOJtxA2MycGEuY2xhaW0udjIAAAACD2Nib3KlY2FsZ2ZzaGEyNTZpc2lnbmF0dXJleE1zZWxmI2p1bWJmPS9jMnBhL3VybjpjMnBhOmUxY2VkMzk0LTAxMDMtNDBlMy04MWI2LTYxYjFjYTc5Mzc2MS9jMnBhLnNpZ25hdHVyZWppbnN0YW5jZUlEeCx4bXA6aWlkOjFlOWVhZjY2LTY0ZDktNDg5Mi05MjUwLTNlMmQzMjBhODExM3JjcmVhdGVkX2Fzc2VydGlvbnODomN1cmx4LXNlbGYjanVtYmY9YzJwYS5hc3NlcnRpb25zL2MycGEuaW5ncmVkaWVudC52M2RoYXNoWCCqVjZMvmJeQnbYmOo35/m1Lcrj1W3lQ/NLYtuwBmZyuqJjdXJseCpzZWxmI2p1bWJmPWMycGEuYXNzZXJ0aW9ucy9jMnBhLmFjdGlvbnMudjJkaGFzaFgg58J5kDnLP9jpNOgITiLsS/KJIH4v9+XxHyIh6DP6FQKiY3VybHgpc2VsZiNqdW1iZj1jMnBhLmFzc2VydGlvbnMvYzJwYS5oYXNoLmRhdGFkaGFzaFgg1a8ChIqL3jnc73L1V7OiJYq48eMPUJTyCKTwvXouo290Y2xhaW1fZ2VuZXJhdG9yX2luZm+jZG5hbWVvQW50aHJvcGljIEZpbGVzZ3ZlcnNpb25lMS4wLjBrc3BlY1ZlcnNpb25lMi40LjAAABA4anVtYgAAAChqdW1kYzJjcwARABCAAACqADibcQNjMnBhLnNpZ25hdHVyZQAAABAIY2JvctKEWQISogEmGCFZAgowggIGMIIBjaADAgECAhRA5aAK7sI50L64g/oGQgU9Z1UTADAKBggqhkjOPQQDAzBJMRcwFQYDVQQKEw5BbnRocm9waWMsIFBCQzEuMCwGA1UEAxMlQW50aHJvcGljIENvbnRlbnQgQ3JlZGVudGlhbHMgUm9vdCBDQTAeFw0yNjA4MDcxODQzNTZaFw0yODA4MDYxOTQzNTZaMEQxFzAVBgNVBAoTDkFudGhyb3BpYywgUEJDMSkwJwYDVQQDEyBBbnRocm9waWMgQ2xhdWRlIENvbnRlbnQgU2lnbmluZzBZMBMGByqGSM49AgEGCCqGSM49AwEHA0IABJh6CmvLUBgFFNU0vUKlOVtE6djd17L5SuwX0LemFisBM3dkd/3cyjxFA3Qo5S46fX0/ihY0VZ7mfb9KF703t5OjWDBWMA4GA1UdDwEB/wQEAwIHgDAVBgNVHSUEDjAMBgorBgEEAYPoXgIBMAwGA1UdEwEB/wQCMAAwHwYDVR0jBBgwFoAUzlHiBIFOZFsj+OPEz5o+nMHXXMIwCgYIKoZIzj0EAwMDZwAwZAIwMXMdFJ4BetLLVY7ORuE9noqbbAZOZn/aArXyTwFAZfKrPzxF2vPoJNf1+UCdg1XGAjBwX1zd9WGqYkqmL5SFqw1QySjr1zJfpJM9+1rdDwSPLMOPOjKuiXjoU/pUUeG9RwmhY3BhZFkNngAAAAAAAAAAAAAAAAAAAAAAAAAAAAAAAAAAAAAAAAAAAAAAAAAAAAAAAAAAAAAAAAAAAAAAAAAAAAAAAAAAAAAAAAAAAAAAAAAAAAAAAAAAAAAAAAAAAAAAAAAAAAAAAAAAAAAAAAAAAAAAAAAAAAAAAAAAAAAAAAAAAAAAAAAAAAAAAAAAAAAAAAAAAAAAAAAAAAAAAAAAAAAAAAAAAAAAAAAAAAAAAAAAAAAAAAAAAAAAAAAAAAAAAAAAAAAAAAAAAAAAAAAAAAAAAAAAAAAAAAAAAAAAAAAAAAAAAAAAAAAAAAAAAAAAAAAAAAAAAAAAAAAAAAAAAAAAAAAAAAAAAAAAAAAAAAAAAAAAAAAAAAAAAAAAAAAAAAAAAAAAAAAAAAAAAAAAAAAAAAAAAAAAAAAAAAAAAAAAAAAAAAAAAAAAAAAAAAAAAAAAAAAAAAAAAAAAAAAAAAAAAAAAAAAAAAAAAAAAAAAAAAAAAAAAAAAAAAAAAAAAAAAAAAAAAAAAAAAAAAAAAAAAAAAAAAAAAAAAAAAAAAAAAAAAAAAAAAAAAAAAAAAAAAAAAAAAAAAAAAAAAAAAAAAAAAAAAAAAAAAAAAAAAAAAAAAAAAAAAAAAAAAAAAAAAAAAAAAAAAAAAAAAAAAAAAAAAAAAAAAAAAAAAAAAAAAAAAAAAAAAAAAAAAAAAAAAAAAAAAAAAAAAAAAAAAAAAAAAAAAAAAAAAAAAAAAAAAAAAAAAAAAAAAAAAAAAAAAAAAAAAAAAAAAAAAAAAAAAAAAAAAAAAAAAAAAAAAAAAAAAAAAAAAAAAAAAAAAAAAAAAAAAAAAAAAAAAAAAAAAAAAAAAAAAAAAAAAAAAAAAAAAAAAAAAAAAAAAAAAAAAAAAAAAAAAAAAAAAAAAAAAAAAAAAAAAAAAAAAAAAAAAAAAAAAAAAAAAAAAAAAAAAAAAAAAAAAAAAAAAAAAAAAAAAAAAAAAAAAAAAAAAAAAAAAAAAAAAAAAAAAAAAAAAAAAAAAAAAAAAAAAAAAAAAAAAAAAAAAAAAAAAAAAAAAAAAAAAAAAAAAAAAAAAAAAAAAAAAAAAAAAAAAAAAAAAAAAAAAAAAAAAAAAAAAAAAAAAAAAAAAAAAAAAAAAAAAAAAAAAAAAAAAAAAAAAAAAAAAAAAAAAAAAAAAAAAAAAAAAAAAAAAAAAAAAAAAAAAAAAAAAAAAAAAAAAAAAAAAAAAAAAAAAAAAAAAAAAAAAAAAAAAAAAAAAAAAAAAAAAAAAAAAAAAAAAAAAAAAAAAAAAAAAAAAAAAAAAAAAAAAAAAAAAAAAAAAAAAAAAAAAAAAAAAAAAAAAAAAAAAAAAAAAAAAAAAAAAAAAAAAAAAAAAAAAAAAAAAAAAAAAAAAAAAAAAAAAAAAAAAAAAAAAAAAAAAAAAAAAAAAAAAAAAAAAAAAAAAAAAAAAAAAAAAAAAAAAAAAAAAAAAAAAAAAAAAAAAAAAAAAAAAAAAAAAAAAAAAAAAAAAAAAAAAAAAAAAAAAAAAAAAAAAAAAAAAAAAAAAAAAAAAAAAAAAAAAAAAAAAAAAAAAAAAAAAAAAAAAAAAAAAAAAAAAAAAAAAAAAAAAAAAAAAAAAAAAAAAAAAAAAAAAAAAAAAAAAAAAAAAAAAAAAAAAAAAAAAAAAAAAAAAAAAAAAAAAAAAAAAAAAAAAAAAAAAAAAAAAAAAAAAAAAAAAAAAAAAAAAAAAAAAAAAAAAAAAAAAAAAAAAAAAAAAAAAAAAAAAAAAAAAAAAAAAAAAAAAAAAAAAAAAAAAAAAAAAAAAAAAAAAAAAAAAAAAAAAAAAAAAAAAAAAAAAAAAAAAAAAAAAAAAAAAAAAAAAAAAAAAAAAAAAAAAAAAAAAAAAAAAAAAAAAAAAAAAAAAAAAAAAAAAAAAAAAAAAAAAAAAAAAAAAAAAAAAAAAAAAAAAAAAAAAAAAAAAAAAAAAAAAAAAAAAAAAAAAAAAAAAAAAAAAAAAAAAAAAAAAAAAAAAAAAAAAAAAAAAAAAAAAAAAAAAAAAAAAAAAAAAAAAAAAAAAAAAAAAAAAAAAAAAAAAAAAAAAAAAAAAAAAAAAAAAAAAAAAAAAAAAAAAAAAAAAAAAAAAAAAAAAAAAAAAAAAAAAAAAAAAAAAAAAAAAAAAAAAAAAAAAAAAAAAAAAAAAAAAAAAAAAAAAAAAAAAAAAAAAAAAAAAAAAAAAAAAAAAAAAAAAAAAAAAAAAAAAAAAAAAAAAAAAAAAAAAAAAAAAAAAAAAAAAAAAAAAAAAAAAAAAAAAAAAAAAAAAAAAAAAAAAAAAAAAAAAAAAAAAAAAAAAAAAAAAAAAAAAAAAAAAAAAAAAAAAAAAAAAAAAAAAAAAAAAAAAAAAAAAAAAAAAAAAAAAAAAAAAAAAAAAAAAAAAAAAAAAAAAAAAAAAAAAAAAAAAAAAAAAAAAAAAAAAAAAAAAAAAAAAAAAAAAAAAAAAAAAAAAAAAAAAAAAAAAAAAAAAAAAAAAAAAAAAAAAAAAAAAAAAAAAAAAAAAAAAAAAAAAAAAAAAAAAAAAAAAAAAAAAAAAAAAAAAAAAAAAAAAAAAAAAAAAAAAAAAAAAAAAAAAAAAAAAAAAAAAAAAAAAAAAAAAAAAAAAAAAAAAAAAAAAAAAAAAAAAAAAAAAAAAAAAAAAAAAAAAAAAAAAAAAAAAAAAAAAAAAAAAAAAAAAAAAAAAAAAAAAAAAAAAAAAAAAAAAAAAAAAAAAAAAAAAAAAAAAAAAAAAAAAAAAAAAAAAAAAAAAAAAAAAAAAAAAAAAAAAAAAAAAAAAAAAAAAAAAAAAAAAAAAAAAAAAAAAAAAAAAAAAAAAAAAAAAAAAAAAAAAAAAAAAAAAAAAAAAAAAAAAAAAAAAAAAAAAAAAAAAAAAAAAAAAAAAAAAAAAAAAAAAAAAAAAAAAAAAAAAAAAAAAAAAAAAAAAAAAAAAAAAAAAAAAAAAAAAAAAAAAAAAAAAAAAAAAAAAAAAAAAAAAAAAAAAAAAAAAAAAAAAAAAAAAAAAAAAAAAAAAAAAAAAAAAAAAAAAAAAAAAAAAAAAAAAAAAAAAAAAAAAAAAAAAAAAAAAAAAAAAAAAAAAAAAAAAAAAAAAAAAAAAAAAAAAAAAAAAAAAAAAAAAAAAAAAAAAAAAAAAAAAAAAAAAAAAAAAAAAAAAAAAAAAAAAAAAAAAAAAAAAAAAAAAAAAAAAAAAAAAAAAAAAAAAAAAAAAAAAAAAAAAAAAAAAAAAAAAAAAAAAAAAAAAAAAAAAAAAAAAAAAAAAAAAAAAAAAAAAAAAAAAAAAAAAAAAAAAAAAAAAAAAAAAAAAAAAAAAAAAAAAAAAAAAAAAAAAAAAAAAAAAAAAAAAAAAAAAAAAAAAAAAAAAAAAAAAAAAAAAAAAAAAAAAAAAAAAAAAAAAAAAAAAAAAAAAAAAAAAAAAAAAAAAAAAAAAAAAAAAAAAAAAAAAAAAAAAAAAAAAAAAAAAAAAAAAAAAAAAAAAAAAAAAAAAAAAAAAAAAAAAAAAAAAAAAAAAAAAAAAAAAAAAAAAAAAAAAAAAAAAAAAAAAAAAAAAAAAAAAAAAAAAAAAAAAAAAAAAAAAAAAAAAAAAAAAAAAAAAAAAAAAAAAAAAAAAAAAAAAAAAAAAAAAAAAAAAAAAAAAAAAAAAAAAAAAAAAAAAAAAAAAAAAAAAAAAAAAAAAAAAAAAAAAAAAAAAAAAAAAAAAAAAAAAAAAAAAAAAAAAAAAAAAAAAAAAAAAAAAAAAAAAAAAAAAAAAAAAAAAAAAAAAAAAAAAAAAAAAAAAAAAAAAAAAAAAAAAAAAAAAAAAAAAAAAAAAAAAAAAAAAAAAAAAAAAAAAAAAAAAAAAAAAAAAAAAAAAAAAAAAAAAAAAAAAAAAAAAAAAAAAAAAAAAAAAAAAAAAAAAAAAAAAAAAAAAAAAAAAAAAAAAAAAAAAAAAAAAAAAAAAAAAAAAAAAAAAAAAAAAAAAAAAAAAAAAAAAAAAAAAAAAAAAAAAAAAAAAAAAAAAAAAAAAAAAAAAAAAAAAAAAAAAAAAAAAAAAAAAAAAAAAAAAAAAAAAAAAAAAAAAAAAAAAAAAAAAAAAAAAAAAAAAAAAAAAAAAAAAAAAAAAAAAAAAAAAAAAAAAAAAAAAAAAAAAAAAAAAAAAAAAAAAAAAAAAAAAAAAAAAAAAAAAAAAAAAAAAAAAAAAAAAAAAAAAAAAAAAAAAAAAAAAAAAAAAAAAAAAAAAAAAAAAAAAAAAAAAAAAAAAAAAAAAAAAAAAAAAAAAAAAAAAAAAAAAAAAAAAAAAAAAAAAAAAAAAAAAAAAAAAAAAAAAAAAAAAAAAAAAAAAAAAAAAAAAAAAAAAAAAAAAAAAAAAAAAAAAAAAAAAAAAAAAAAAAAAAAAAAAAAAAAAAAAAAAAAAAAAAAAAAAAAAAAAAAAAAAAAAAAAAAAAAAAAAAAAAAAAAAAAAAAAAAAAAAAAAAAAAAAAAAAAAAAAAAAAAAAAAAAAAAAAAAAAAAAAAAAAAAAAAAAAAAAAAAAAAAAAAAAAAAAAAAAAAAAAAAAAAAAAAAAAAAAAAAAAAAAAAAAAAAAAAAAAAAAAAAAAAAAAAAAAAAAAAAAAAAAAAAAAAAAAAAAAAAAAAAAAAAAAAAAAAAAAAPZYQHOpiGv6ZIYJ9btmlSE/KqvQEgsrkKiUcVe8wKInh2b+a/V3XRMVOSnx3tAEIb/SNj3QV2TNCpqMUhGPEnsu858=</c2pa:manifest></metadata>
  <defs>
    <clipPath id="hexclip"><path d="M 512.0,84.0 L 868.0,298.0 L 868.0,726.0 L 512.0,940.0 L 156.0,726.0 L 156.0,298.0 Z"/></clipPath>
  </defs>

  <!-- badge face -->
  <path d="M 486.3,99.5 Q 512.0,84.0 537.7,99.5 L 842.3,282.5 Q 868.0,298.0 868.0,328.0 L 868.0,696.0 Q 868.0,726.0 842.3,741.5 L 537.7,924.5 Q 512.0,940.0 486.3,924.5 L 181.7,741.5 Q 156.0,726.0 156.0,696.0 L 156.0,328.0 Q 156.0,298.0 181.7,282.5 Z" fill="#fbfaf7" stroke="#002e65" stroke-width="12"/>
  <path d="M 493.2,121.4 Q 512.0,110.0 530.8,121.4 L 823.2,299.6 Q 842.0,311.0 842.0,333.0 L 842.0,691.0 Q 842.0,713.0 823.2,724.4 L 530.8,902.6 Q 512.0,914.0 493.2,902.6 L 200.8,724.4 Q 182.0,713.0 182.0,691.0 L 182.0,333.0 Q 182.0,311.0 200.8,299.6 Z" fill="none" stroke="#ea2c38" stroke-width="5"
        opacity="0.9"/>

  <g clip-path="url(#hexclip)">
    <!-- skyline + river -->
    <g fill="#aebfd4">
  <!-- stepped gable houses, left -->
  <path d="M 228,660.0 L 228,600 L 246,600 L 246,584 L 264,584 L 264,568
           L 282,568 L 282,584 L 300,584 L 300,600 L 318,600 L 318,660.0 Z"/>
  <!-- cathedral tower -->
  <path d="M 336,660.0 L 336,478 L 344,478 L 352,436 L 360,414 L 368,396
           L 376,414 L 384,436 L 392,478 L 400,478 L 400,660.0 Z"/>
  <!-- nave -->
  <path d="M 400,660.0 L 400,556 L 430,528 L 460,556 L 460,660.0 Z"/>
  <!-- stepped gable houses, right -->
  <path d="M 540,660.0 L 540,596 L 558,596 L 558,578 L 576,578 L 576,560
           L 594,560 L 594,578 L 612,578 L 612,596 L 630,596 L 630,660.0 Z"/>
  <path d="M 648,660.0 L 648,610 L 666,610 L 666,592 L 690,592 L 690,610
           L 714,610 L 714,660.0 Z"/>
  <!-- Het Steen style block, far right -->
  <path d="M 726,660.0 L 726,614 L 744,614 L 744,596 L 762,596 L 762,614
           L 780,614 L 780,660.0 Z"/>
</g>
    
  <rect x="200" y="668.0" width="624" height="7" rx="3.5" fill="#aebfd4"/>
  <rect x="236" y="686.0" width="228" height="5" rx="2.5" fill="#aebfd4" opacity="0.7"/>
  <rect x="504" y="686.0" width="284" height="5" rx="2.5" fill="#aebfd4" opacity="0.7"/>


    <!-- baseline -->
    <line x1="214" y1="660.0" x2="810" y2="660.0"
          stroke="#002e65" stroke-width="7" stroke-linecap="round"/>

    <!-- prior curve (navy) -->
    <path d="M 228.00,658.95 L 230.11,658.83 L 232.22,658.71 L 234.33,658.57 L 236.44,658.42 L 238.56,658.26 L 240.67,658.08 L 242.78,657.88 L 244.89,657.67 L 247.00,657.44 L 249.11,657.19 L 251.22,656.91 L 253.33,656.62 L 255.44,656.30 L 257.56,655.96 L 259.67,655.59 L 261.78,655.19 L 263.89,654.76 L 266.00,654.30 L 268.11,653.81 L 270.22,653.28 L 272.33,652.72 L 274.44,652.12 L 276.56,651.48 L 278.67,650.80 L 280.78,650.07 L 282.89,649.30 L 285.00,648.48 L 287.11,647.61 L 289.22,646.70 L 291.33,645.73 L 293.44,644.71 L 295.56,643.64 L 297.67,642.51 L 299.78,641.33 L 301.89,640.09 L 304.00,638.79 L 306.11,637.43 L 308.22,636.02 L 310.33,634.54 L 312.44,633.00 L 314.56,631.41 L 316.67,629.76 L 318.78,628.04 L 320.89,626.27 L 323.00,624.45 L 325.11,622.56 L 327.22,620.63 L 329.33,618.64 L 331.44,616.60 L 333.56,614.51 L 335.67,612.38 L 337.78,610.21 L 339.89,608.00 L 342.00,605.75 L 344.11,603.47 L 346.22,601.16 L 348.33,598.83 L 350.44,596.48 L 352.56,594.12 L 354.67,591.75 L 356.78,589.37 L 358.89,587.00 L 361.00,584.64 L 363.11,582.28 L 365.22,579.95 L 367.33,577.65 L 369.44,575.37 L 371.56,573.14 L 373.67,570.94 L 375.78,568.80 L 377.89,566.72 L 380.00,564.69 L 382.11,562.74 L 384.22,560.86 L 386.33,559.06 L 388.44,557.35 L 390.56,555.73 L 392.67,554.21 L 394.78,552.79 L 396.89,551.48 L 399.00,550.28 L 401.11,549.19 L 403.22,548.22 L 405.33,547.38 L 407.44,546.65 L 409.56,546.06 L 411.67,545.60 L 413.78,545.27 L 415.89,545.07 L 418.00,545.00 L 420.11,545.07 L 422.22,545.27 L 424.33,545.60 L 426.44,546.06 L 428.56,546.65 L 430.67,547.38 L 432.78,548.22 L 434.89,549.19 L 437.00,550.28 L 439.11,551.48 L 441.22,552.79 L 443.33,554.21 L 445.44,555.73 L 447.56,557.35 L 449.67,559.06 L 451.78,560.86 L 453.89,562.74 L 456.00,564.69 L 458.11,566.72 L 460.22,568.80 L 462.33,570.94 L 464.44,573.14 L 466.56,575.37 L 468.67,577.65 L 470.78,579.95 L 472.89,582.28 L 475.00,584.64 L 477.11,587.00 L 479.22,589.37 L 481.33,591.75 L 483.44,594.12 L 485.56,596.48 L 487.67,598.83 L 489.78,601.16 L 491.89,603.47 L 494.00,605.75 L 496.11,608.00 L 498.22,610.21 L 500.33,612.38 L 502.44,614.51 L 504.56,616.60 L 506.67,618.64 L 508.78,620.63 L 510.89,622.56 L 513.00,624.45 L 515.11,626.27 L 517.22,628.04 L 519.33,629.76 L 521.44,631.41 L 523.56,633.00 L 525.67,634.54 L 527.78,636.02 L 529.89,637.43 L 532.00,638.79 L 534.11,640.09 L 536.22,641.33 L 538.33,642.51 L 540.44,643.64 L 542.56,644.71 L 544.67,645.73 L 546.78,646.70 L 548.89,647.61 L 551.00,648.48 L 553.11,649.30 L 555.22,650.07 L 557.33,650.80 L 559.44,651.48 L 561.56,652.12 L 563.67,652.72 L 565.78,653.28 L 567.89,653.81 L 570.00,654.30 L 572.11,654.76 L 574.22,655.19 L 576.33,655.59 L 578.44,655.96 L 580.56,656.30 L 582.67,656.62 L 584.78,656.91 L 586.89,657.19 L 589.00,657.44 L 591.11,657.67 L 593.22,657.88 L 595.33,658.08 L 597.44,658.26 L 599.56,658.42 L 601.67,658.57 L 603.78,658.71 L 605.89,658.83 L 608.00,658.95" fill="none" stroke="#002e65" stroke-width="11"
          stroke-linecap="round" stroke-linejoin="round"/>
    <!-- posterior curve (UA red) -->
    <path d="M 416.00,658.95 L 418.11,658.83 L 420.22,658.71 L 422.33,658.57 L 424.44,658.42 L 426.56,658.26 L 428.67,658.08 L 430.78,657.88 L 432.89,657.67 L 435.00,657.44 L 437.11,657.19 L 439.22,656.91 L 441.33,656.62 L 443.44,656.30 L 445.56,655.96 L 447.67,655.59 L 449.78,655.19 L 451.89,654.76 L 454.00,654.30 L 456.11,653.81 L 458.22,653.28 L 460.33,652.72 L 462.44,652.12 L 464.56,651.48 L 466.67,650.80 L 468.78,650.07 L 470.89,649.30 L 473.00,648.48 L 475.11,647.61 L 477.22,646.70 L 479.33,645.73 L 481.44,644.71 L 483.56,643.64 L 485.67,642.51 L 487.78,641.33 L 489.89,640.09 L 492.00,638.79 L 494.11,637.43 L 496.22,636.02 L 498.33,634.54 L 500.44,633.00 L 502.56,631.41 L 504.67,629.76 L 506.78,628.04 L 508.89,626.27 L 511.00,624.45 L 513.11,622.56 L 515.22,620.63 L 517.33,618.64 L 519.44,616.60 L 521.56,614.51 L 523.67,612.38 L 525.78,610.21 L 527.89,608.00 L 530.00,605.75 L 532.11,603.47 L 534.22,601.16 L 536.33,598.83 L 538.44,596.48 L 540.56,594.12 L 542.67,591.75 L 544.78,589.37 L 546.89,587.00 L 549.00,584.64 L 551.11,582.28 L 553.22,579.95 L 555.33,577.65 L 557.44,575.37 L 559.56,573.14 L 561.67,570.94 L 563.78,568.80 L 565.89,566.72 L 568.00,564.69 L 570.11,562.74 L 572.22,560.86 L 574.33,559.06 L 576.44,557.35 L 578.56,555.73 L 580.67,554.21 L 582.78,552.79 L 584.89,551.48 L 587.00,550.28 L 589.11,549.19 L 591.22,548.22 L 593.33,547.38 L 595.44,546.65 L 597.56,546.06 L 599.67,545.60 L 601.78,545.27 L 603.89,545.07 L 606.00,545.00 L 608.11,545.07 L 610.22,545.27 L 612.33,545.60 L 614.44,546.06 L 616.56,546.65 L 618.67,547.38 L 620.78,548.22 L 622.89,549.19 L 625.00,550.28 L 627.11,551.48 L 629.22,552.79 L 631.33,554.21 L 633.44,555.73 L 635.56,557.35 L 637.67,559.06 L 639.78,560.86 L 641.89,562.74 L 644.00,564.69 L 646.11,566.72 L 648.22,568.80 L 650.33,570.94 L 652.44,573.14 L 654.56,575.37 L 656.67,577.65 L 658.78,579.95 L 660.89,582.28 L 663.00,584.64 L 665.11,587.00 L 667.22,589.37 L 669.33,591.75 L 671.44,594.12 L 673.56,596.48 L 675.67,598.83 L 677.78,601.16 L 679.89,603.47 L 682.00,605.75 L 684.11,608.00 L 686.22,610.21 L 688.33,612.38 L 690.44,614.51 L 692.56,616.60 L 694.67,618.64 L 696.78,620.63 L 698.89,622.56 L 701.00,624.45 L 703.11,626.27 L 705.22,628.04 L 707.33,629.76 L 709.44,631.41 L 711.56,633.00 L 713.67,634.54 L 715.78,636.02 L 717.89,637.43 L 720.00,638.79 L 722.11,640.09 L 724.22,641.33 L 726.33,642.51 L 728.44,643.64 L 730.56,644.71 L 732.67,645.73 L 734.78,646.70 L 736.89,647.61 L 739.00,648.48 L 741.11,649.30 L 743.22,650.07 L 745.33,650.80 L 747.44,651.48 L 749.56,652.12 L 751.67,652.72 L 753.78,653.28 L 755.89,653.81 L 758.00,654.30 L 760.11,654.76 L 762.22,655.19 L 764.33,655.59 L 766.44,655.96 L 768.56,656.30 L 770.67,656.62 L 772.78,656.91 L 774.89,657.19 L 777.00,657.44 L 779.11,657.67 L 781.22,657.88 L 783.33,658.08 L 785.44,658.26 L 787.56,658.42 L 789.67,658.57 L 791.78,658.71 L 793.89,658.83 L 796.00,658.95" fill="none" stroke="#ea2c38" stroke-width="13"
          stroke-linecap="round" stroke-linejoin="round"/>

    <!-- arrow prior -> posterior -->
    <line x1="446" y1="496" x2="560" y2="496" stroke="#ea2c38"
          stroke-width="11" stroke-linecap="round"/>
    <path d="M 556,478 L 596,496 L 556,514 Z" fill="#ea2c38"/>
  </g>

  <!-- wordmarks -->
  <text x="512.0" y="400" text-anchor="middle"
        font-family="Atkinson Hyperlegible, DejaVu Sans, sans-serif"
        font-weight="700" font-size="150" fill="#002e65"
        letter-spacing="8">BAR</text>

  <text x="512.0" y="762" text-anchor="middle"
        font-family="Atkinson Hyperlegible, DejaVu Sans, sans-serif"
        font-weight="700" font-size="58" fill="#002e65"
        letter-spacing="1">Antwerp 2026</text>

  <text x="512.0" y="814" text-anchor="middle"
        font-family="Atkinson Hyperlegible, DejaVu Sans, sans-serif"
        font-weight="400" font-size="26" fill="#ea2c38"
        letter-spacing="6">EDUBRON</text>

</svg>
